<?xml version="1.0" encoding="UTF-8" standalone="no"?>
<svg
   xmlns:dc="http://purl.org/dc/elements/1.1/"
   xmlns:cc="http://creativecommons.org/ns#"
   xmlns:rdf="http://www.w3.org/1999/02/22-rdf-syntax-ns#"
   xmlns:svg="http://www.w3.org/2000/svg"
   xmlns="http://www.w3.org/2000/svg"
   xmlns:sodipodi="http://sodipodi.sourceforge.net/DTD/sodipodi-0.dtd"
   xmlns:inkscape="http://www.inkscape.org/namespaces/inkscape"
   width="180"
   height="180"
   id="svg2"
   version="1.1"
   inkscape:version="0.48.3.1 r9886"
   sodipodi:docname="cadence.svg">
  <metadata
     id="metadata10">
    <rdf:RDF>
      <cc:Work
         rdf:about="">
        <dc:format>image/svg+xml</dc:format>
        <dc:type
           rdf:resource="http://purl.org/dc/dcmitype/StillImage" />
      </cc:Work>
    </rdf:RDF>
  </metadata>
  <defs
     id="defs8" />
  <sodipodi:namedview
     pagecolor="#ffffff"
     bordercolor="#666666"
     borderopacity="1"
     objecttolerance="10"
     gridtolerance="10"
     guidetolerance="10"
     inkscape:pageopacity="0"
     inkscape:pageshadow="2"
     inkscape:window-width="1024"
     inkscape:window-height="539"
     id="namedview6"
     showgrid="false"
     fit-margin-top="0"
     fit-margin-left="0"
     fit-margin-right="0"
     fit-margin-bottom="0"
     inkscape:zoom="2.13125"
     inkscape:cx="104.47184"
     inkscape:cy="84.662536"
     inkscape:window-x="0"
     inkscape:window-y="17"
     inkscape:window-maximized="1"
     inkscape:current-layer="svg2" />
  <path
     style="fill:#010101;stroke:none"
     d="m 80.375313,6.493735 c -22.065,2.208 -53.458,1.479 -70.7109999,18.054001 -7.587,7.288 -5.289,19.955 -5.289,29.5 l 0,71.999994 c 0,9.102 -2.287,21.428 4.43,28.674 7.2479999,7.82 19.5249999,11.226 29.5699999,13.631 24.652,5.901 50.858,6.856 75.999997,4.349 17.594,-1.754 45.268,-4.129 57.35,-18.866 6.133,-7.481 3.65,-20.742 3.65,-29.788 l 0,-68.999994 c 0,-8.849 2.266,-21.413 -3.694,-28.782 -5.631,-6.961 -15.999,-10.357 -24.306,-12.750001 -20.842,-6.003 -45.351,-9.188 -66.999997,-7.022 m -9,4.897 c 23.884,-2.273 49.923997,-0.487 72.999997,6.125001 7.818,2.24 19.413,5.098 23.787,12.725 3.591,6.26 -4.032,11.357 -8.789,13.855 -12.451,6.539 -28.137,9.265 -41.998,10.718 -26.737997,2.803 -54.957997,2.263 -80.999997,-4.952 -7.947,-2.202 -21.716,-5.382 -25.256,-13.931 -2.7529999,-6.646 6.423,-11.701 11.256,-13.9 15.206,-6.918001 32.548,-9.074001 49,-10.640001 m -59.991,34.517001 c 3.233,-0.498 8.077,3.406 10.991,4.608 8.33,3.437 17.175,5.61 26,7.323 25.384,4.93 53.511997,5.006 78.999997,0.732 10.171,-1.705 20.444,-4.113 30,-8.055 2.491,-1.028 8.854,-5.814 11.545,-4.436 2.444,1.252 1.453,7.784 1.455,9.968 l 0,29 0,45.999994 c 0,6.311 1.328,14.442 -2.76,19.782 -7.572,9.89 -24.758,12.737 -36.24,14.919 -29.136,5.535 -61.093997,5.194 -89.999997,-1.501 -9.725,-2.253 -24.086,-5.314 -29.887,-14.333 -4.0169999,-6.246 -2.1129999,-16.762 -2.1129999,-23.867 l 0,-55.999994 c 0,-3.381 -1.954,-23.529 2.0089999,-24.14 m 5.853625,12.937666 c 0,0 0.555375,60.459828 0.555375,85.007238 9.472428,22.90998 137.410027,23.86012 144.770877,0.97918 0,-21.23142 0.88691,-73.43689 0.88691,-88.801668 -22.03328,17.090993 -121.409602,17.629604 -146.213162,2.81525 z"
     id="path4"
     inkscape:connector-curvature="0"
     sodipodi:nodetypes="ccssccccsscccccccsccccccccccccsccccsscccccc" />
  <path
     sodipodi:type="arc"
     style="fill:#000000;fill-opacity:1;stroke:none"
     id="path3072"
     sodipodi:cx="94.310852"
     sodipodi:cy="34.545456"
     sodipodi:rx="28.152491"
     sodipodi:ry="9.3841639"
     d="m 122.46334,34.545456 a 28.152491,9.3841639 0 1 1 -56.304979,0 28.152491,9.3841639 0 1 1 56.304979,0 z"
     transform="matrix(1.2916667,0,0,1.0526119,-32.434022,-2.6444844)" />
</svg>
